<?xml version="1.0" encoding="UTF-8"?>
<svg width="82px" height="78px" viewBox="0 0 82 78" version="1.1" xmlns="http://www.w3.org/2000/svg" xmlns:xlink="http://www.w3.org/1999/xlink">
    <!-- Generator: Sketch 64 (93537) - https://sketch.com -->
    <title>logo small</title>
    <desc>Created with Sketch.</desc>
    <g id="logo-small" stroke="none" stroke-width="1" fill="none" fill-rule="evenodd">
        <path d="M22,59 L57,59 L57,19 L22,19 L22,59 Z M68.149186,64.4704157 C61.5983569,70.7934515 51.9932463,74 39.5984577,74 L21.5959629,74 L21.5959629,62.1851167 L60.0863364,62.1851167 L60.0863364,14.8167596 L18.0427146,14.8167596 L18.0427146,58.6577257 L3,58.6577257 L3,3 L39.5984577,3 C51.9894663,3 61.5945769,6.20654845 68.149186,12.5295843 C74.6848949,18.8394863 78,27.5772839 78,38.4971856 C78,49.4245924 74.6867849,58.16239 68.149186,64.4704157 L68.149186,64.4704157 Z M40.0996271,0 L0,0 L0,62.6684935 L18.5718429,62.6684935 L18.5718429,78 L40.0996271,78 C53.4334515,78 63.8604116,74.4600851 71.0879333,67.4815028 C78.3286681,60.487921 82,50.9050263 82,38.9971876 C82,27.0968486 78.3286681,17.5158289 71.0879333,10.5184972 C63.8566364,3.53991491 53.4296764,0 40.0996271,0 L40.0996271,0 Z" id="Fill-1" fill="#000000" opacity="0.127929688"></path>
        <g id="Dianomi_Avatar_Black_RGB" transform="translate(-45.000000, -47.000000)" fill="#000000" fill-rule="nonzero">
            <path d="M84.7058824,47 L45,47 L45,109.687117 L63.2647059,109.687117 L63.2647059,125 L84.5470588,125 C97.7294118,125 108.052941,121.490798 115.2,114.472393 C122.347059,107.453988 126,97.8834356 126,86.0797546 C126,74.1165644 122.347059,64.5460123 115.2,57.6871166 C108.211765,50.5092025 97.8882353,47 84.7058824,47 Z M112.817647,111.760736 C106.305882,118.141104 96.9352941,121.331288 84.7058824,121.331288 L67.0764706,121.331288 L67.0764706,109.846626 L105.035294,109.846626 L105.035294,62.3128834 L63.4235294,62.3128834 L63.4235294,106.018405 L48.8117647,106.018405 L48.8117647,50.8282209 L84.7058824,50.8282209 C96.9352941,50.8282209 106.305882,54.0184049 112.817647,60.2392638 C119.170588,66.4601227 122.505882,75.2331288 122.505882,86.0797546 C122.347059,96.9263804 119.170588,105.539877 112.817647,111.760736 Z M67.0764706,106.018405 L67.0764706,66.1411043 L101.223529,66.1411043 L101.223529,106.018405 L67.0764706,106.018405 Z" id="Shape"></path>
        </g>
    </g>
</svg>