<?xml version="1.0" encoding="UTF-8"?>
<svg width="318px" height="50px" viewBox="0 0 318 50" version="1.1" xmlns="http://www.w3.org/2000/svg" xmlns:xlink="http://www.w3.org/1999/xlink">
    <!-- Generator: Sketch 64 (93537) - https://sketch.com -->
    <title>logo</title>
    <desc>Created with Sketch.</desc>
    <g id="logo" stroke="none" stroke-width="1" fill="none" fill-rule="evenodd">
        <g id="Dianomi_Solid_Black_RGB" fill="#000000" fill-rule="nonzero">
            <polygon id="Path" points="289.418605 48.372093 289.418605 48.372093 300.930233 48.372093 300.930233 48.372093 300.930233 18.1395349 289.418605 18.1395349"></polygon>
            <polygon id="Path" points="289.418605 5.11627907 289.418605 11.627907 289.418605 11.627907 300.930233 11.627907 300.930233 11.627907 300.930233 5.11627907 300.930233 2.20930233 289.418605 2.20930233"></polygon>
            <path d="M23.7209302,2.09302326 L11.5116279,2.09302326 L0,2.09302326 L0,38.9534884 L11.5116279,38.9534884 L11.5116279,11.627907 L35.2325581,11.627907 L35.2325581,38.8372093 L11.5116279,38.8372093 L11.5116279,48.372093 L23.7209302,48.372093 C31.744186,48.372093 37.7906977,46.2790698 42.0930233,42.0930233 C46.3953488,37.9069767 48.4883721,32.3255814 48.4883721,25.1162791 C48.4883721,18.0232558 46.3953488,12.3255814 42.0930233,8.13953488 C37.7906977,4.06976744 31.627907,2.09302326 23.7209302,2.09302326 Z" id="Path"></path>
            <polygon id="Path" points="55 27.5581395 55 48.372093 55 48.372093 66.5116279 48.372093 66.5116279 48.372093 66.5116279 27.5581395 66.5116279 18.1395349 55 18.1395349"></polygon>
            <path d="M307.44186,2.90697674 L305.930233,2.90697674 L305.930233,2.09302326 L309.883721,2.09302326 L309.883721,2.90697674 L308.372093,2.90697674 L308.372093,6.97674419 L307.44186,6.97674419 L307.44186,2.90697674 L307.44186,2.90697674 Z M310.930233,2.09302326 L311.976744,2.09302326 L313.488372,4.41860465 L315,2.09302326 L315.930233,2.09302326 L315.930233,6.97674419 L315,6.97674419 L315,3.48837209 L313.488372,5.81395349 L313.372093,5.81395349 L311.860465,3.48837209 L311.860465,6.97674419 L310.930233,6.97674419 L310.930233,2.09302326 L310.930233,2.09302326 Z" id="Shape"></path>
            <path d="M157.093023,6.39534884 C153.604651,2.90697674 148.72093,1.1627907 142.44186,1.1627907 C136.162791,1.1627907 131.27907,2.90697674 127.790698,6.39534884 C124.302326,9.88372093 122.674419,14.6511628 122.674419,20.6976744 L122.674419,48.4883721 L134.186047,48.4883721 L134.186047,11.627907 L142.55814,11.627907 L150.930233,11.627907 L150.930233,48.4883721 L162.44186,48.4883721 L162.44186,20.6976744 C162.325581,14.6511628 160.581395,9.88372093 157.093023,6.39534884 Z" id="Path"></path>
            <polygon id="Path" points="55 5.11627907 55 11.627907 55 11.627907 66.5116279 11.627907 66.5116279 11.627907 66.5116279 5.11627907 66.5116279 2.20930233 55 2.20930233"></polygon>
            <path d="M195.930233,49.1860465 C196.395349,49.1860465 196.976744,49.0697674 197.44186,48.9534884 C197.674419,48.9534884 198.023256,48.8372093 198.255814,48.8372093 C198.953488,48.7209302 199.534884,48.6046512 200.232558,48.372093 C200.581395,48.255814 200.930233,48.1395349 201.162791,48.0232558 C201.511628,47.9069767 201.860465,47.7906977 202.093023,47.6744186 C202.44186,47.5581395 202.790698,47.4418605 203.255814,47.2093023 C203.488372,47.0930233 203.72093,46.9767442 203.953488,46.8604651 C206.395349,45.6976744 208.604651,44.3023256 210.581395,42.3255814 C211.744186,41.1627907 212.790698,39.8837209 213.72093,38.6046512 C214.069767,38.0232558 214.418605,37.4418605 214.767442,36.9767442 C214.883721,36.744186 215,36.5116279 215.116279,36.3953488 C215.348837,35.9302326 215.581395,35.5813953 215.697674,35.1162791 C215.813953,34.8837209 215.930233,34.6511628 215.930233,34.4186047 C216.162791,33.8372093 216.395349,33.255814 216.511628,32.5581395 C216.511628,32.4418605 216.511628,32.4418605 216.627907,32.3255814 C216.860465,31.627907 216.976744,30.9302326 217.093023,30.3488372 C217.093023,30.1162791 217.209302,29.8837209 217.209302,29.6511628 C217.325581,29.0697674 217.325581,28.6046512 217.44186,28.0232558 C217.44186,27.7906977 217.44186,27.5581395 217.55814,27.3255814 C217.674419,26.627907 217.674419,25.8139535 217.674419,25 C217.674419,18.0232558 215.348837,12.2093023 210.697674,7.6744186 C206.046512,3.13953488 200.116279,0.813953488 193.023256,0.813953488 C193.023256,0.813953488 193.023256,0.813953488 193.023256,0.813953488 C193.023256,0.813953488 193.023256,0.813953488 193.023256,0.813953488 C185.813953,0.813953488 179.883721,3.02325581 175.348837,7.6744186 C170.697674,12.2093023 168.372093,18.0232558 168.372093,25 C168.372093,25.8139535 168.372093,26.5116279 168.488372,27.3255814 C168.488372,27.5581395 168.488372,27.7906977 168.604651,28.0232558 C168.604651,28.6046512 168.72093,29.0697674 168.837209,29.6511628 C168.837209,29.8837209 168.953488,30.1162791 168.953488,30.3488372 C169.069767,31.0465116 169.186047,31.744186 169.418605,32.3255814 C169.418605,32.4418605 169.418605,32.4418605 169.534884,32.5581395 C169.767442,33.1395349 169.883721,33.8372093 170.116279,34.4186047 C170.232558,34.6511628 170.348837,34.8837209 170.348837,35.1162791 C170.581395,35.5813953 170.697674,36.0465116 170.930233,36.3953488 C171.046512,36.627907 171.162791,36.8604651 171.27907,36.9767442 C171.627907,37.5581395 171.976744,38.1395349 172.325581,38.6046512 C173.255814,39.8837209 174.186047,41.1627907 175.465116,42.3255814 C177.44186,44.3023256 179.651163,45.8139535 182.093023,46.8604651 C182.325581,46.9767442 182.55814,47.0930233 182.790698,47.2093023 C183.139535,47.3255814 183.488372,47.5581395 183.953488,47.6744186 C184.302326,47.7906977 184.534884,47.9069767 184.883721,48.0232558 C185.232558,48.1395349 185.581395,48.255814 185.813953,48.372093 C186.395349,48.4883721 187.093023,48.7209302 187.790698,48.8372093 C188.023256,48.8372093 188.372093,48.9534884 188.604651,48.9534884 C189.069767,49.0697674 189.651163,49.0697674 190.116279,49.1860465 C190.348837,49.1860465 190.581395,49.1860465 190.813953,49.3023256 C191.627907,49.3023256 192.325581,49.4186047 193.139535,49.4186047 C193.139535,49.4186047 193.139535,49.4186047 193.139535,49.4186047 C193.139535,49.4186047 193.139535,49.4186047 193.139535,49.4186047 C193.139535,49.4186047 193.139535,49.4186047 193.139535,49.4186047 C193.139535,49.4186047 193.139535,49.4186047 193.139535,49.4186047 C193.953488,49.4186047 194.651163,49.4186047 195.465116,49.3023256 C195.465116,49.1860465 195.697674,49.1860465 195.930233,49.1860465 Z M180,38.8372093 L180,11.627907 L205.697674,11.627907 L205.697674,38.8372093 L180,38.8372093 Z" id="Shape"></path>
            <path d="M282.325581,16.9767442 C281.976744,12.0930233 280.465116,8.25581395 277.790698,5.58139535 C275.813953,3.72093023 273.604651,2.44186047 270.930233,1.74418605 L270.930233,1.74418605 C270.465116,1.62790698 270,1.51162791 269.534884,1.39534884 C269.418605,1.39534884 269.186047,1.39534884 268.953488,1.27906977 C268.604651,1.27906977 268.255814,1.1627907 267.906977,1.1627907 C267.790698,1.1627907 267.55814,1.1627907 267.44186,1.1627907 C266.860465,1.1627907 266.395349,1.04651163 265.813953,1.04651163 C260,1.04651163 255.813953,3.13953488 253.023256,7.3255814 L252.906977,7.3255814 C250.116279,3.13953488 245.930233,1.04651163 240.116279,1.04651163 C239.534884,1.04651163 239.069767,1.04651163 238.488372,1.1627907 C238.372093,1.1627907 238.139535,1.1627907 238.023256,1.1627907 C237.674419,1.1627907 237.325581,1.27906977 236.976744,1.27906977 C236.744186,1.27906977 236.627907,1.27906977 236.395349,1.39534884 C235.930233,1.51162791 235.465116,1.62790698 235,1.74418605 L235,1.74418605 C232.325581,2.44186047 230,3.72093023 228.139535,5.58139535 C226.511628,7.09302326 225.348837,9.18604651 224.651163,11.5116279 L224.651163,11.5116279 C224.651163,11.5116279 224.651163,11.5116279 224.651163,11.5116279 C224.302326,12.5581395 224.069767,13.7209302 223.837209,15 C223.837209,15.1162791 223.837209,15.1162791 223.837209,15.2325581 C223.72093,15.8139535 223.72093,16.2790698 223.72093,16.8604651 C223.72093,17.5581395 223.604651,18.255814 223.604651,18.9534884 L223.604651,48.255814 L235.116279,48.255814 L235.116279,48.255814 L235.232558,48.255814 L235.232558,11.627907 L247.325581,11.627907 L247.325581,48.4883721 L247.44186,48.4883721 L258.72093,48.4883721 L258.837209,48.4883721 L258.837209,11.627907 L270.930233,11.627907 L270.930233,48.4883721 L271.046512,48.4883721 L282.55814,48.4883721 L282.55814,19.0697674 C282.44186,18.372093 282.44186,17.6744186 282.325581,16.9767442 Z" id="Path"></path>
            <path d="M110.232558,7.3255814 C106.744186,3.8372093 101.860465,2.09302326 95.5813953,2.09302326 L78.255814,2.09302326 L78.255814,11.627907 L103.488372,11.627907 L103.604651,18.372093 L100.581395,18.372093 L88.0232558,18.372093 L87.0930233,18.372093 L87.0930233,18.372093 C83.0232558,18.6046512 79.6511628,20 76.9767442,22.5581395 C74.0697674,25.3488372 72.6744186,29.0697674 72.6744186,33.372093 C72.6744186,37.7906977 74.0697674,41.3953488 76.9767442,44.1860465 C79.6511628,46.8604651 83.0232558,48.255814 87.0930233,48.372093 L87.0930233,48.372093 L103.837209,48.372093 L103.837209,48.372093 L115.348837,48.372093 L115.465116,21.3953488 C115.348837,15.5813953 113.72093,10.8139535 110.232558,7.3255814 Z M103.837209,38.8372093 L103.837209,38.8372093 L83.372093,38.8372093 L83.372093,38.8372093 L83.372093,27.6744186 L103.72093,27.6744186 L103.72093,38.8372093 L103.837209,38.8372093 Z" id="Shape"></path>
        </g>
    </g>
</svg>